<mxfile host="app.diagrams.net" modified="2023-10-25T14:27:21.644Z" agent="Mozilla/5.0 (Macintosh; Intel Mac OS X 10_15_7) AppleWebKit/537.36 (KHTML, like Gecko) Chrome/118.0.0.0 Safari/537.36" etag="UES18vIQdpF5MFELG-bP" version="22.0.8" type="device">
  <diagram id="C5RBs43oDa-KdzZeNtuy" name="Page-1">
    <mxGraphModel dx="939" dy="536" grid="1" gridSize="10" guides="1" tooltips="1" connect="1" arrows="1" fold="1" page="1" pageScale="1" pageWidth="827" pageHeight="1169" math="0" shadow="0">
      <root>
        <mxCell id="WIyWlLk6GJQsqaUBKTNV-0" />
        <mxCell id="WIyWlLk6GJQsqaUBKTNV-1" parent="WIyWlLk6GJQsqaUBKTNV-0" />
        <mxCell id="WIyWlLk6GJQsqaUBKTNV-3" value="scikit-mobility" style="rounded=1;whiteSpace=wrap;html=1;fontSize=12;glass=0;strokeWidth=1;shadow=0;fillColor=#f0a30a;strokeColor=#BD7000;fontColor=#FFFFFF;" parent="WIyWlLk6GJQsqaUBKTNV-1" vertex="1">
          <mxGeometry x="40" y="80" width="120" height="40" as="geometry" />
        </mxCell>
        <mxCell id="WIyWlLk6GJQsqaUBKTNV-7" value="Tools Library" style="rounded=1;whiteSpace=wrap;html=1;fontSize=12;glass=0;strokeWidth=1;shadow=0;fillColor=#fa6800;fontColor=#FFFFFF;strokeColor=#C73500;" parent="WIyWlLk6GJQsqaUBKTNV-1" vertex="1">
          <mxGeometry x="180" y="260" width="120" height="40" as="geometry" />
        </mxCell>
        <mxCell id="XiE7Bm4aYx6HnvnYk2O6-0" value="moving-pandas" style="rounded=1;whiteSpace=wrap;html=1;fontSize=12;glass=0;strokeWidth=1;shadow=0;fillColor=#f0a30a;strokeColor=#BD7000;fontColor=#FFFFFF;" vertex="1" parent="WIyWlLk6GJQsqaUBKTNV-1">
          <mxGeometry x="180" y="80" width="120" height="40" as="geometry" />
        </mxCell>
        <mxCell id="XiE7Bm4aYx6HnvnYk2O6-1" value="..." style="rounded=1;whiteSpace=wrap;html=1;fontSize=12;glass=0;strokeWidth=1;shadow=0;fillColor=#f0a30a;strokeColor=#BD7000;fontColor=#FFFFFF;" vertex="1" parent="WIyWlLk6GJQsqaUBKTNV-1">
          <mxGeometry x="320" y="80" width="120" height="40" as="geometry" />
        </mxCell>
        <mxCell id="XiE7Bm4aYx6HnvnYk2O6-2" value="" style="endArrow=classic;html=1;rounded=0;exitX=0.5;exitY=1;exitDx=0;exitDy=0;entryX=0.5;entryY=0;entryDx=0;entryDy=0;" edge="1" parent="WIyWlLk6GJQsqaUBKTNV-1" source="WIyWlLk6GJQsqaUBKTNV-3" target="WIyWlLk6GJQsqaUBKTNV-7">
          <mxGeometry width="50" height="50" relative="1" as="geometry">
            <mxPoint x="180" y="230" as="sourcePoint" />
            <mxPoint x="230" y="180" as="targetPoint" />
          </mxGeometry>
        </mxCell>
        <mxCell id="XiE7Bm4aYx6HnvnYk2O6-6" value="Encapsulate" style="edgeLabel;html=1;align=center;verticalAlign=middle;resizable=0;points=[];" vertex="1" connectable="0" parent="XiE7Bm4aYx6HnvnYk2O6-2">
          <mxGeometry x="-0.0536" y="-1" relative="1" as="geometry">
            <mxPoint as="offset" />
          </mxGeometry>
        </mxCell>
        <mxCell id="XiE7Bm4aYx6HnvnYk2O6-3" value="" style="endArrow=classic;html=1;rounded=0;exitX=0.5;exitY=1;exitDx=0;exitDy=0;entryX=0.5;entryY=0;entryDx=0;entryDy=0;" edge="1" parent="WIyWlLk6GJQsqaUBKTNV-1" source="XiE7Bm4aYx6HnvnYk2O6-0" target="WIyWlLk6GJQsqaUBKTNV-7">
          <mxGeometry width="50" height="50" relative="1" as="geometry">
            <mxPoint x="180" y="230" as="sourcePoint" />
            <mxPoint x="260" y="190" as="targetPoint" />
          </mxGeometry>
        </mxCell>
        <mxCell id="XiE7Bm4aYx6HnvnYk2O6-5" value="Encapsulate" style="edgeLabel;html=1;align=center;verticalAlign=middle;resizable=0;points=[];" vertex="1" connectable="0" parent="XiE7Bm4aYx6HnvnYk2O6-3">
          <mxGeometry x="-0.2333" y="-2" relative="1" as="geometry">
            <mxPoint as="offset" />
          </mxGeometry>
        </mxCell>
        <mxCell id="XiE7Bm4aYx6HnvnYk2O6-4" value="Encapsulate" style="endArrow=classic;html=1;rounded=0;exitX=0.5;exitY=1;exitDx=0;exitDy=0;entryX=0.5;entryY=0;entryDx=0;entryDy=0;" edge="1" parent="WIyWlLk6GJQsqaUBKTNV-1" source="XiE7Bm4aYx6HnvnYk2O6-1" target="WIyWlLk6GJQsqaUBKTNV-7">
          <mxGeometry width="50" height="50" relative="1" as="geometry">
            <mxPoint x="180" y="230" as="sourcePoint" />
            <mxPoint x="260" y="190" as="targetPoint" />
          </mxGeometry>
        </mxCell>
        <mxCell id="XiE7Bm4aYx6HnvnYk2O6-7" value="Self-made addition tools" style="rounded=1;whiteSpace=wrap;html=1;fontSize=12;glass=0;strokeWidth=1;shadow=0;fillColor=#f0a30a;fontColor=#FFFFFF;strokeColor=#BD7000;" vertex="1" parent="WIyWlLk6GJQsqaUBKTNV-1">
          <mxGeometry x="160" y="380" width="160" height="40" as="geometry" />
        </mxCell>
        <mxCell id="XiE7Bm4aYx6HnvnYk2O6-8" value="" style="endArrow=classic;html=1;rounded=0;exitX=0.5;exitY=0;exitDx=0;exitDy=0;entryX=0.5;entryY=1;entryDx=0;entryDy=0;" edge="1" parent="WIyWlLk6GJQsqaUBKTNV-1" source="XiE7Bm4aYx6HnvnYk2O6-7" target="WIyWlLk6GJQsqaUBKTNV-7">
          <mxGeometry width="50" height="50" relative="1" as="geometry">
            <mxPoint x="210" y="280" as="sourcePoint" />
            <mxPoint x="260" y="230" as="targetPoint" />
          </mxGeometry>
        </mxCell>
        <mxCell id="XiE7Bm4aYx6HnvnYk2O6-9" value="Task Planning" style="rounded=1;whiteSpace=wrap;html=1;fillColor=#1ba1e2;strokeColor=#006EAF;fontColor=#ffffff;" vertex="1" parent="WIyWlLk6GJQsqaUBKTNV-1">
          <mxGeometry x="490" y="170" width="120" height="40" as="geometry" />
        </mxCell>
        <mxCell id="XiE7Bm4aYx6HnvnYk2O6-10" value="" style="endArrow=classic;html=1;rounded=0;exitX=1;exitY=0;exitDx=0;exitDy=0;entryX=0;entryY=0.5;entryDx=0;entryDy=0;dashed=1;dashPattern=8 8;" edge="1" parent="WIyWlLk6GJQsqaUBKTNV-1" source="WIyWlLk6GJQsqaUBKTNV-7" target="XiE7Bm4aYx6HnvnYk2O6-9">
          <mxGeometry width="50" height="50" relative="1" as="geometry">
            <mxPoint x="330" y="220" as="sourcePoint" />
            <mxPoint x="380" y="170" as="targetPoint" />
          </mxGeometry>
        </mxCell>
        <mxCell id="XiE7Bm4aYx6HnvnYk2O6-15" value="Document" style="edgeLabel;html=1;align=center;verticalAlign=middle;resizable=0;points=[];" vertex="1" connectable="0" parent="XiE7Bm4aYx6HnvnYk2O6-10">
          <mxGeometry x="-0.0849" relative="1" as="geometry">
            <mxPoint as="offset" />
          </mxGeometry>
        </mxCell>
        <mxCell id="XiE7Bm4aYx6HnvnYk2O6-41" style="edgeStyle=orthogonalEdgeStyle;orthogonalLoop=1;jettySize=auto;html=1;exitX=1;exitY=0.5;exitDx=0;exitDy=0;entryX=0.5;entryY=0;entryDx=0;entryDy=0;dashed=1;dashPattern=8 8;curved=1;" edge="1" parent="WIyWlLk6GJQsqaUBKTNV-1" source="XiE7Bm4aYx6HnvnYk2O6-11" target="XiE7Bm4aYx6HnvnYk2O6-38">
          <mxGeometry relative="1" as="geometry" />
        </mxCell>
        <mxCell id="XiE7Bm4aYx6HnvnYk2O6-11" value="Request Analysis" style="rounded=1;whiteSpace=wrap;html=1;fillColor=#1ba1e2;strokeColor=#006EAF;fontColor=#ffffff;" vertex="1" parent="WIyWlLk6GJQsqaUBKTNV-1">
          <mxGeometry x="490" y="80" width="120" height="40" as="geometry" />
        </mxCell>
        <mxCell id="XiE7Bm4aYx6HnvnYk2O6-13" value="Execution" style="rounded=1;whiteSpace=wrap;html=1;fillColor=#1ba1e2;strokeColor=#006EAF;fontColor=#ffffff;" vertex="1" parent="WIyWlLk6GJQsqaUBKTNV-1">
          <mxGeometry x="490" y="260" width="120" height="40" as="geometry" />
        </mxCell>
        <mxCell id="XiE7Bm4aYx6HnvnYk2O6-14" value="" style="endArrow=classic;html=1;rounded=0;exitX=0.5;exitY=1;exitDx=0;exitDy=0;entryX=0.5;entryY=0;entryDx=0;entryDy=0;" edge="1" parent="WIyWlLk6GJQsqaUBKTNV-1" source="XiE7Bm4aYx6HnvnYk2O6-9" target="XiE7Bm4aYx6HnvnYk2O6-13">
          <mxGeometry width="50" height="50" relative="1" as="geometry">
            <mxPoint x="330" y="300" as="sourcePoint" />
            <mxPoint x="380" y="250" as="targetPoint" />
          </mxGeometry>
        </mxCell>
        <mxCell id="XiE7Bm4aYx6HnvnYk2O6-16" value="" style="endArrow=classic;html=1;rounded=0;entryX=1;entryY=0.5;entryDx=0;entryDy=0;exitX=0;exitY=0.5;exitDx=0;exitDy=0;dashed=1;dashPattern=8 8;" edge="1" parent="WIyWlLk6GJQsqaUBKTNV-1" source="XiE7Bm4aYx6HnvnYk2O6-13" target="WIyWlLk6GJQsqaUBKTNV-7">
          <mxGeometry width="50" height="50" relative="1" as="geometry">
            <mxPoint x="410" y="350" as="sourcePoint" />
            <mxPoint x="380" y="270" as="targetPoint" />
          </mxGeometry>
        </mxCell>
        <mxCell id="XiE7Bm4aYx6HnvnYk2O6-17" value="Calling" style="edgeLabel;html=1;align=center;verticalAlign=middle;resizable=0;points=[];" vertex="1" connectable="0" parent="XiE7Bm4aYx6HnvnYk2O6-16">
          <mxGeometry x="0.1184" relative="1" as="geometry">
            <mxPoint as="offset" />
          </mxGeometry>
        </mxCell>
        <mxCell id="XiE7Bm4aYx6HnvnYk2O6-35" style="edgeStyle=orthogonalEdgeStyle;rounded=0;orthogonalLoop=1;jettySize=auto;html=1;exitX=0.5;exitY=1;exitDx=0;exitDy=0;entryX=0.5;entryY=0;entryDx=0;entryDy=0;" edge="1" parent="WIyWlLk6GJQsqaUBKTNV-1" source="XiE7Bm4aYx6HnvnYk2O6-18" target="XiE7Bm4aYx6HnvnYk2O6-34">
          <mxGeometry relative="1" as="geometry" />
        </mxCell>
        <mxCell id="XiE7Bm4aYx6HnvnYk2O6-36" style="edgeStyle=orthogonalEdgeStyle;orthogonalLoop=1;jettySize=auto;html=1;exitX=1;exitY=0.5;exitDx=0;exitDy=0;entryX=0.32;entryY=0.046;entryDx=0;entryDy=0;strokeColor=default;curved=1;endArrow=none;endFill=0;dashed=1;dashPattern=8 8;entryPerimeter=0;" edge="1" parent="WIyWlLk6GJQsqaUBKTNV-1" source="XiE7Bm4aYx6HnvnYk2O6-18" target="XiE7Bm4aYx6HnvnYk2O6-33">
          <mxGeometry relative="1" as="geometry">
            <Array as="points">
              <mxPoint x="693" y="370" />
            </Array>
          </mxGeometry>
        </mxCell>
        <mxCell id="XiE7Bm4aYx6HnvnYk2O6-18" value="Output" style="rounded=1;whiteSpace=wrap;html=1;fillColor=#1ba1e2;strokeColor=#006EAF;fontColor=#ffffff;" vertex="1" parent="WIyWlLk6GJQsqaUBKTNV-1">
          <mxGeometry x="490" y="350" width="120" height="40" as="geometry" />
        </mxCell>
        <mxCell id="XiE7Bm4aYx6HnvnYk2O6-19" value="" style="endArrow=classic;html=1;rounded=0;exitX=0.5;exitY=1;exitDx=0;exitDy=0;entryX=0.5;entryY=0;entryDx=0;entryDy=0;" edge="1" parent="WIyWlLk6GJQsqaUBKTNV-1" source="XiE7Bm4aYx6HnvnYk2O6-13" target="XiE7Bm4aYx6HnvnYk2O6-18">
          <mxGeometry width="50" height="50" relative="1" as="geometry">
            <mxPoint x="330" y="360" as="sourcePoint" />
            <mxPoint x="380" y="310" as="targetPoint" />
          </mxGeometry>
        </mxCell>
        <mxCell id="XiE7Bm4aYx6HnvnYk2O6-20" value="" style="endArrow=classic;html=1;rounded=0;exitX=1;exitY=1;exitDx=0;exitDy=0;entryX=0;entryY=0.5;entryDx=0;entryDy=0;dashed=1;dashPattern=8 8;" edge="1" parent="WIyWlLk6GJQsqaUBKTNV-1" source="WIyWlLk6GJQsqaUBKTNV-7" target="XiE7Bm4aYx6HnvnYk2O6-18">
          <mxGeometry width="50" height="50" relative="1" as="geometry">
            <mxPoint x="330" y="360" as="sourcePoint" />
            <mxPoint x="380" y="310" as="targetPoint" />
          </mxGeometry>
        </mxCell>
        <mxCell id="XiE7Bm4aYx6HnvnYk2O6-22" value="Result" style="edgeLabel;html=1;align=center;verticalAlign=middle;resizable=0;points=[];" vertex="1" connectable="0" parent="XiE7Bm4aYx6HnvnYk2O6-20">
          <mxGeometry x="0.0057" relative="1" as="geometry">
            <mxPoint as="offset" />
          </mxGeometry>
        </mxCell>
        <mxCell id="XiE7Bm4aYx6HnvnYk2O6-24" value="GPT" style="ellipse;whiteSpace=wrap;html=1;fillColor=#60a917;strokeColor=#2D7600;fontColor=#ffffff;" vertex="1" parent="WIyWlLk6GJQsqaUBKTNV-1">
          <mxGeometry x="750" y="170" width="40" height="40" as="geometry" />
        </mxCell>
        <mxCell id="XiE7Bm4aYx6HnvnYk2O6-26" value="" style="endArrow=classic;html=1;rounded=0;exitX=0.5;exitY=1;exitDx=0;exitDy=0;entryX=0.5;entryY=0;entryDx=0;entryDy=0;" edge="1" parent="WIyWlLk6GJQsqaUBKTNV-1" source="XiE7Bm4aYx6HnvnYk2O6-11" target="XiE7Bm4aYx6HnvnYk2O6-9">
          <mxGeometry width="50" height="50" relative="1" as="geometry">
            <mxPoint x="550" y="170" as="sourcePoint" />
            <mxPoint x="530" y="270" as="targetPoint" />
          </mxGeometry>
        </mxCell>
        <mxCell id="XiE7Bm4aYx6HnvnYk2O6-33" value="GPT" style="ellipse;whiteSpace=wrap;html=1;fillColor=#60a917;strokeColor=#2D7600;fontColor=#ffffff;" vertex="1" parent="WIyWlLk6GJQsqaUBKTNV-1">
          <mxGeometry x="680" y="400" width="40" height="40" as="geometry" />
        </mxCell>
        <mxCell id="XiE7Bm4aYx6HnvnYk2O6-37" style="edgeStyle=orthogonalEdgeStyle;orthogonalLoop=1;jettySize=auto;html=1;exitX=1;exitY=0.5;exitDx=0;exitDy=0;entryX=0.266;entryY=0.993;entryDx=0;entryDy=0;curved=1;dashed=1;dashPattern=8 8;endArrow=none;endFill=0;entryPerimeter=0;" edge="1" parent="WIyWlLk6GJQsqaUBKTNV-1" source="XiE7Bm4aYx6HnvnYk2O6-34" target="XiE7Bm4aYx6HnvnYk2O6-33">
          <mxGeometry relative="1" as="geometry">
            <Array as="points">
              <mxPoint x="691" y="460" />
            </Array>
          </mxGeometry>
        </mxCell>
        <mxCell id="XiE7Bm4aYx6HnvnYk2O6-34" value="Reponse" style="rounded=1;whiteSpace=wrap;html=1;fillColor=#1ba1e2;strokeColor=#006EAF;fontColor=#ffffff;" vertex="1" parent="WIyWlLk6GJQsqaUBKTNV-1">
          <mxGeometry x="490" y="440" width="120" height="40" as="geometry" />
        </mxCell>
        <mxCell id="XiE7Bm4aYx6HnvnYk2O6-42" style="edgeStyle=orthogonalEdgeStyle;orthogonalLoop=1;jettySize=auto;html=1;exitX=0.5;exitY=1;exitDx=0;exitDy=0;entryX=1;entryY=0.5;entryDx=0;entryDy=0;dashed=1;dashPattern=8 8;curved=1;" edge="1" parent="WIyWlLk6GJQsqaUBKTNV-1" source="XiE7Bm4aYx6HnvnYk2O6-38" target="XiE7Bm4aYx6HnvnYk2O6-13">
          <mxGeometry relative="1" as="geometry" />
        </mxCell>
        <mxCell id="XiE7Bm4aYx6HnvnYk2O6-43" style="edgeStyle=orthogonalEdgeStyle;rounded=0;orthogonalLoop=1;jettySize=auto;html=1;exitX=0;exitY=0.5;exitDx=0;exitDy=0;entryX=1;entryY=0.5;entryDx=0;entryDy=0;dashed=1;dashPattern=8 8;" edge="1" parent="WIyWlLk6GJQsqaUBKTNV-1" source="XiE7Bm4aYx6HnvnYk2O6-38" target="XiE7Bm4aYx6HnvnYk2O6-9">
          <mxGeometry relative="1" as="geometry" />
        </mxCell>
        <mxCell id="XiE7Bm4aYx6HnvnYk2O6-38" value="langchain" style="rounded=1;whiteSpace=wrap;html=1;" vertex="1" parent="WIyWlLk6GJQsqaUBKTNV-1">
          <mxGeometry x="650" y="170" width="70" height="40" as="geometry" />
        </mxCell>
        <mxCell id="XiE7Bm4aYx6HnvnYk2O6-39" value="" style="endArrow=none;dashed=1;html=1;dashPattern=1 3;strokeWidth=2;rounded=0;exitX=0;exitY=0.5;exitDx=0;exitDy=0;entryX=1;entryY=0.5;entryDx=0;entryDy=0;" edge="1" parent="WIyWlLk6GJQsqaUBKTNV-1" source="XiE7Bm4aYx6HnvnYk2O6-24" target="XiE7Bm4aYx6HnvnYk2O6-38">
          <mxGeometry width="50" height="50" relative="1" as="geometry">
            <mxPoint x="430" y="310" as="sourcePoint" />
            <mxPoint x="480" y="260" as="targetPoint" />
          </mxGeometry>
        </mxCell>
      </root>
    </mxGraphModel>
  </diagram>
</mxfile>
